<?xml version="1.0" encoding="utf-8"?>
<!-- Generator: Adobe Illustrator 24.2.3, SVG Export Plug-In . SVG Version: 6.00 Build 0)  -->
<svg version="1.1" id="Layer_1" xmlns="http://www.w3.org/2000/svg" xmlns:xlink="http://www.w3.org/1999/xlink" x="0px" y="0px"
	 viewBox="0 0 1080 1440" style="enable-background:new 0 0 1080 1440;" xml:space="preserve">
<style type="text/css">
	.st0{fill:#007A7A;}
</style>
<g>
	<path class="st0" d="M692.35,285.54c-0.68,0-1.31-0.37-1.65-0.96l-8.05-14.14c-0.62-1.08-1.67-1.73-2.93-1.73
		c-1.25,0-2.3,0.44-2.93,1.51l-4.89,7.4c-0.89,1.34-2.94,1.04-3.4-0.5l-10.37-34.72c-0.4-1.42-1.73-2.27-3.11-2.54
		c-0.16-0.03-0.32-0.04-0.49-0.03c-1.38,0.11-2.71,1.15-3.11,2.57l-17.94,63.7c-0.5,1.76-2.95,1.87-3.6,0.16L610.74,256
		c-0.42-1.29-1.67-2.16-2.93-2.16c-1.46,0-2.51,0.65-3.14,1.94l-16.04,32.37c-0.32,0.65-0.98,1.05-1.7,1.05H563.8
		c-1.05,0-1.9,0.85-1.9,1.9v3.32c0,1.05,0.85,1.9,1.9,1.9h25.98c1.26,0,2.51-0.65,3.14-1.93l12.12-24.56
		c0.73-1.49,2.88-1.38,3.47,0.17l20.47,53.93c0.42,1.29,1.89,2.16,3.14,2.16c0,0,0,0,0.21,0c1.47,0,2.73-1.08,3.14-2.59l17.51-61.68
		c0.52-1.82,3.1-1.84,3.64-0.03l8.41,28.07c0.42,1.29,1.47,2.15,2.73,2.37c1.25,0.22,2.51-0.43,3.35-1.51l6.47-9.73
		c0.78-1.17,2.52-1.12,3.22,0.11l5.39,9.42c0.63,1.08,1.68,1.72,2.94,1.72h13.93c1.05,0,1.9-0.85,1.9-1.9v-2.89
		c0-1.05-0.85-1.9-1.9-1.9H692.35z"/>
	<path class="st0" d="M571.85,294.36L571.85,294.36c0,1.05-0.85,1.9-1.9,1.9H122.52c-1.05,0-1.9-0.85-1.9-1.9l0,0
		c0-1.05,0.85-1.9,1.9-1.9h447.44C571.01,292.47,571.85,293.32,571.85,294.36z"/>
	<path class="st0" d="M571.65,290.56L571.65,290.56c0,1.06-0.85,1.9-1.9,1.9H122.52c-1.05,0-1.9-0.85-1.9-1.9v-0.01
		c0-1.05,0.85-1.9,1.9-1.9h447.24C570.8,288.67,571.65,289.52,571.65,290.56z"/>
	<path class="st0" d="M959.37,290.73L959.37,290.73c0,1.05-0.85,1.9-1.9,1.9H703.09c-1.05,0-1.9-0.85-1.9-1.9l0,0
		c0-1.05,0.85-1.9,1.9-1.9h254.39C958.52,288.84,959.37,289.69,959.37,290.73z"/>
	<path class="st0" d="M702.88,285.04h254.59c1.05,0,1.9,0.85,1.9,1.9v0.01c0,1.05-0.85,1.9-1.9,1.9H702.88c-1.05,0-1.9-0.85-1.9-1.9
		v-0.01C700.99,285.89,701.84,285.04,702.88,285.04z"/>
</g>
<path class="st0" d="M233.29,127.32c-0.89-1.9-2.47-3.35-4.44-4.07l-37.63-13.7c-3.13-1.14-6.52-0.99-9.54,0.42
	c-3.02,1.41-5.31,3.91-6.45,7.04c-1.36,3.73-0.88,7.79,1.27,11.08c-1.49,8.47-7.13,15.68-14.88,19.25l0.32-11.72
	c2.96-2.3,4.87-5.89,4.87-9.92c0-6.93-5.64-12.57-12.57-12.57s-12.57,5.64-12.57,12.57c0,4.03,1.91,7.62,4.87,9.92l0.65,23.95
	c-5.61-1.64-10.74-4.57-15.05-8.6c0,0,0,0-0.01-0.01c-0.24-0.22-0.47-0.45-0.71-0.68c-0.1-0.1-0.2-0.19-0.29-0.29
	c-0.18-0.18-0.35-0.36-0.52-0.54c-0.14-0.15-0.29-0.3-0.43-0.46c-0.15-0.17-0.31-0.34-0.46-0.51c-0.15-0.16-0.29-0.33-0.44-0.5
	c-0.15-0.18-0.31-0.36-0.46-0.54c-0.13-0.16-0.26-0.31-0.38-0.47c-0.16-0.2-0.33-0.41-0.48-0.62c-0.1-0.13-0.2-0.26-0.3-0.39
	c-0.18-0.24-0.35-0.48-0.53-0.72c-0.07-0.1-0.14-0.19-0.2-0.29c-0.19-0.28-0.39-0.56-0.57-0.85c-0.04-0.05-0.07-0.11-0.1-0.16
	c-0.21-0.33-0.42-0.66-0.62-0.99c-0.09-0.14-0.17-0.29-0.26-0.44c-0.02-0.03-0.03-0.06-0.05-0.09c-0.19-0.33-0.38-0.66-0.56-0.99
	c-0.01-0.02-0.03-0.05-0.04-0.07c-0.17-0.32-0.34-0.64-0.51-0.97c-0.02-0.04-0.04-0.09-0.07-0.13c-0.16-0.32-0.32-0.65-0.47-0.97
	c-0.01-0.03-0.03-0.06-0.04-0.09c-0.63-1.37-1.18-2.79-1.64-4.23c-0.02-0.06-0.04-0.11-0.06-0.17c-0.09-0.29-0.18-0.59-0.26-0.88
	c-0.06-0.2-0.12-0.4-0.17-0.59c-0.1-0.36-0.18-0.72-0.27-1.08c-0.02-0.1-0.05-0.2-0.08-0.31c-0.11-0.48-0.21-0.96-0.3-1.44
	c-0.01-0.04-0.02-0.07-0.03-0.11c-0.02-0.07-0.03-0.14-0.05-0.2c-0.01-0.02-0.01-0.03-0.02-0.05c-0.03-0.09-0.06-0.17-0.1-0.25
	c0,0,0-0.01-0.01-0.01c-0.28-0.57-0.79-1.01-1.41-1.2c-2.08-0.65-3.8-2.15-4.71-4.11c-0.04-0.09-0.1-0.18-0.15-0.27
	c-0.59-0.93-1.75-1.34-2.81-0.96l-28.18,10.26c-0.79,0.29-1.64,0.25-2.39-0.1c-0.76-0.35-1.33-0.98-1.62-1.77
	c-0.13-0.35-0.19-0.71-0.19-1.07c0-1.31,0.83-2.49,2.06-2.94l37.64-13.7c1.94-0.71,4.04-0.62,5.91,0.26c1.87,0.87,3.29,2.42,4,4.37
	c0.92,2.52,0.48,5.29-1.18,7.41c-0.39,0.51-0.57,1.15-0.48,1.78c1.13,8.08,5.54,15.54,12.12,20.47c1.05,0.78,2.53,0.57,3.32-0.48
	c0.78-1.05,0.57-2.53-0.48-3.32c-5.32-3.99-8.97-9.93-10.12-16.42c2.15-3.28,2.63-7.35,1.27-11.07c-1.14-3.13-3.43-5.63-6.45-7.04
	c-3.02-1.41-6.41-1.56-9.54-0.42l-37.63,13.7c-3.1,1.13-5.18,4.1-5.18,7.39c0,0.92,0.16,1.83,0.48,2.69
	c0.72,1.97,2.16,3.55,4.07,4.44c1.23,0.57,2.55,0.81,3.86,0.72c-0.05,1.03,0.1,2.07,0.47,3.09c1.13,3.1,4.1,5.18,7.39,5.18
	c0.4,0,0.79-0.04,1.18-0.1c-0.04,1.01,0.11,2.03,0.47,3.02c1.13,3.1,4.1,5.18,7.39,5.18c0.92,0,1.83-0.16,2.69-0.48l0.69-0.25
	c0.02,0.84,0.17,1.68,0.47,2.49c1.13,3.1,4.1,5.18,7.39,5.18c0.93,0,1.83-0.16,2.69-0.47l16.31-5.94c5,4.37,10.91,7.48,17.33,9.11
	l0.83,30.56c-5.23-2.63-10.12-5.09-13.44-6.76c6.99-1.6,12.15-7.03,12.15-13.45c0-7.68-7.38-13.93-16.44-13.93
	c-8.95,0-16.3,6.14-16.44,13.7c0,0.04,0,0.08,0,0.12c0,0,0,0.02,0,0.06c0,0.02,0,0.03,0,0.05c0,0.1,0,0.19,0.01,0.29l0,0.04
	c0.04,1.87,0.22,10.06,0.22,10.09c0.3,9.3,7.24,13.32,9.36,14.33l0.01,0c0.04,0.02,0.08,0.04,0.12,0.06
	c0.5,0.23,1.62,0.74,1.69,0.77l8.87,4.05c1.34,0.61,2.62,1.2,3.86,1.76l-1.56,0.78c-1.45,0.73-2.33,1.17-2.44,1.23
	c-4.13,2.07-6.73,6.26-6.79,10.92c-0.06,4.71,2.39,8.84,6.54,11.06c0.02,0.01,0.04,0.02,0.06,0.03l0.46,0.23
	c0.02,0.01,0.05,0.02,0.07,0.03l5.92,2.71c-3.51,1.78-5.83,2.95-6.36,3.22c-0.01,0.01-0.03,0.02-0.05,0.02
	c-0.21,0.1-0.4,0.23-0.56,0.38c-3.14,2.28-4.86,5.9-4.64,9.77c0.23,3.98,2.53,7.47,6.16,9.34c0.05,0.02,0.1,0.05,0.15,0.07
	c0.16,0.07,0.87,0.4,0.88,0.41l6.52,2.98c-0.65,0.33-1,0.5-1.06,0.53c-2.34,1.18-3.32,3.97-2.23,6.36c0.82,1.78,2.58,2.84,4.43,2.84
	c0.67,0,1.36-0.14,2.01-0.44c1.58-0.72,3.06-1.4,4.46-2.04c0.09,0.99,0.51,1.91,1.24,2.62c0.78,0.76,1.81,1.17,2.89,1.17
	c2.18,0,3.95-1.65,4.13-3.79l4.46,2.04c0.65,0.3,1.34,0.44,2.01,0.44c1.84,0,3.61-1.06,4.43-2.84c1.08-2.38,0.1-5.17-2.23-6.35
	c-0.16-0.08-2.51-1.27-5.78-2.91c-1.94-0.98-4.32-2.17-6.79-3.41l-0.11-4.24c0.37,0.79,1.15,1.35,2.08,1.37c0.02,0,0.04,0,0.07,0
	c1.28,0,2.33-1.02,2.37-2.3l0.18-6.7l1.52,0.69c0.01,0,0.01,0,0.02,0.01c3.95,1.81,7.29,3.33,7.91,3.61
	c0.08,0.04,0.11,0.08,0.11,0.08c0,0.02-0.03,0.09-0.15,0.18l-0.26,0.13c-0.89,0.45-3.17,1.6-6.05,3.05
	c-1.17,0.59-1.64,2.01-1.05,3.18c0.42,0.83,1.25,1.3,2.12,1.3c0.36,0,0.72-0.08,1.06-0.25c2.88-1.45,5.17-2.6,6.06-3.05l0.39-0.2
	c0.07-0.04,0.14-0.08,0.21-0.12c1.59-1.01,2.49-2.67,2.4-4.45c-0.08-1.74-1.1-3.27-2.72-4.09c-0.03-0.02-0.06-0.03-0.1-0.05
	c-0.12-0.05-5.82-2.66-12.75-5.83c-0.01,0-0.02-0.01-0.03-0.01c-0.83-0.38-1.67-0.77-2.53-1.16c-0.02-0.01-0.05-0.02-0.07-0.03
	c-2.82-1.28-5.7-2.6-8.32-3.8l-10.37-4.74l-0.4-0.2c-2.55-1.37-4.04-3.91-4.01-6.81c0.04-2.93,1.6-5.45,4.17-6.74
	c0.1-0.05,0.99-0.5,2.45-1.23l4.95-2.49l4.95,2.26l0.34,12.52c-3.44-1.73-6.29-3.18-7.8-3.94c0.6-0.28,1.38-0.63,2.28-1.05
	c1.19-0.54,1.71-1.95,1.17-3.14c-0.54-1.19-1.95-1.71-3.14-1.17c-2.42,1.11-3.5,1.6-4.05,1.93l-0.01-0.02
	c-0.02,0.02-0.05,0.03-0.07,0.05c-1.19,0.83-1.83,2.2-1.71,3.67c0.12,1.46,0.99,2.75,2.27,3.38c0.39,0.2,8.64,4.36,16.98,8.57
	c3.09,1.56,6.19,3.13,8.91,4.5c0,0,0,0,0,0c4.22,2.13,7.51,3.8,8.4,4.25c1.9,1.32,2.96,3.46,2.82,5.75
	c-0.13,2.31-1.43,4.27-3.56,5.38l-0.7,0.32c-0.04,0.02-0.07,0.03-0.11,0.05c-0.02,0.01-0.04,0.02-0.06,0.03l0,0
	c0,0-0.01,0-0.01,0.01l0,0l-1.55,0.71c-1.19,0.54-1.71,1.95-1.17,3.14c0.4,0.87,1.26,1.38,2.16,1.38c0.33,0,0.66-0.07,0.98-0.21
	l1.55-0.71c0.01,0,0.02-0.01,0.03-0.01l0.93-0.43c0.02-0.01,0.05-0.02,0.07-0.04c3.63-1.86,5.93-5.35,6.17-9.34
	c0.23-3.91-1.53-7.56-4.72-9.83c-0.15-0.12-0.32-0.24-0.52-0.34l-5.21-2.64c-0.37-0.19-0.76-0.38-1.16-0.59l5.93-2.71
	c0.02-0.01,0.05-0.02,0.07-0.03l0.46-0.23c0.02-0.01,0.04-0.02,0.06-0.03c4.15-2.22,6.6-6.35,6.54-11.06
	c-0.06-4.66-2.66-8.84-6.79-10.91c-0.28-0.14-6.52-3.28-14.2-7.15l0.02-0.67c7-3.52,13.73-6.91,17.32-8.71
	c1.59-0.8,2.56-1.29,2.66-1.34c0.02-0.01,0.04-0.02,0.06-0.03l0.06-0.03c0.09-0.05,0.18-0.09,0.18-0.09h0
	c1.35-0.75,2.31-1.91,2.77-3.34c0.25-0.79,0.08-1.66-0.47-2.28c-0.54-0.63-1.38-0.92-2.19-0.78c-0.83,0.14-1.67,0.22-2.51,0.22
	c-6.46,0-11.71-4.12-11.71-9.19c0-5.07,5.25-9.19,11.71-9.19c6.4,0,11.65,4.09,11.71,9.12v0c0,0.01,0,0.02,0,0.03
	c0,0.03,0,0.05,0,0.08l-0.01,0.12c0,0.01,0,0.03,0,0.04c-0.04,1.81-0.22,10.06-0.22,10.06c-0.21,6.44-4.73,9.28-6.66,10.21
	c-0.04,0.02-0.08,0.04-0.13,0.06c-0.52,0.24-1.54,0.71-1.62,0.74l-6.98,3.19c-1.19,0.54-1.71,1.95-1.17,3.14
	c0.4,0.87,1.26,1.38,2.16,1.38c0.33,0,0.66-0.07,0.98-0.21l6.97-3.18c0.07-0.03,1.19-0.54,1.69-0.77c0.04-0.02,0.08-0.04,0.12-0.06
	l0.01,0c2.12-1.01,9.05-5.03,9.36-14.35c0,0,0.18-8.19,0.22-10.06l0-0.04c0.01-0.1,0.01-0.19,0.01-0.29c0-0.02,0-0.03,0-0.05
	c0-0.04,0-0.06,0-0.06c0-0.04,0-0.08,0-0.12c-0.14-7.57-7.5-13.7-16.44-13.7c-9.07,0-16.44,6.25-16.44,13.93
	c0,6.42,5.16,11.85,12.15,13.45c-3.31,1.67-8.21,4.13-13.44,6.76l1.16-42.55c10.57-3.94,18.29-13.46,19.86-24.69
	c0.09-0.64-0.08-1.28-0.48-1.78c-1.65-2.12-2.09-4.89-1.18-7.41c0.71-1.94,2.13-3.49,4-4.36c1.87-0.87,3.97-0.97,5.92-0.26
	l37.64,13.7c0.79,0.29,1.41,0.86,1.77,1.62s0.39,1.61,0.1,2.39c-0.29,0.79-0.86,1.41-1.62,1.77c-0.76,0.35-1.61,0.39-2.39,0.1
	l-28.18-10.26c-0.29-0.11-0.59-0.15-0.88-0.14c-0.87,0.02-1.69,0.53-2.08,1.37c-0.91,1.96-2.63,3.46-4.71,4.11
	c-0.62,0.19-1.13,0.63-1.41,1.2c0,0,0,0.01-0.01,0.01c-0.04,0.08-0.07,0.16-0.1,0.25c-0.01,0.02-0.01,0.03-0.02,0.05
	c-0.02,0.07-0.04,0.13-0.05,0.2c-0.01,0.04-0.02,0.07-0.03,0.11c-0.08,0.44-0.18,0.89-0.28,1.33c-0.03,0.13-0.06,0.25-0.09,0.38
	c-0.07,0.3-0.15,0.6-0.22,0.89c-0.05,0.2-0.1,0.39-0.16,0.59c0,0,0,0.01,0,0.01c-0.1,0.37-0.21,0.74-0.33,1.1
	c-0.07,0.23-0.15,0.45-0.23,0.68c-0.04,0.12-0.08,0.24-0.12,0.36c-0.11,0.31-0.22,0.61-0.33,0.92c-0.01,0.04-0.03,0.07-0.04,0.11
	c-0.13,0.33-0.26,0.66-0.39,0.98c0,0.01-0.01,0.02-0.01,0.03c-1.67,4.02-4.03,7.72-6.95,10.92c-0.03,0.03-0.05,0.06-0.08,0.08
	c-0.18,0.2-0.37,0.4-0.56,0.6c-0.11,0.11-0.21,0.22-0.32,0.33c-0.14,0.14-0.29,0.29-0.43,0.43c-0.19,0.19-0.38,0.37-0.58,0.56
	c-2.78,2.64-5.98,4.87-9.5,6.57c-1.18,0.57-1.67,1.99-1.1,3.16c0.41,0.85,1.25,1.34,2.13,1.34c0.35,0,0.7-0.08,1.03-0.24
	c3.44-1.66,6.59-3.77,9.42-6.23l16.31,5.94c0.86,0.32,1.77,0.48,2.7,0.48c3.3,0,6.27-2.08,7.39-5.18c0.3-0.81,0.45-1.65,0.47-2.49
	l0.68,0.25c0.87,0.32,1.78,0.48,2.69,0.48c3.3,0,6.27-2.08,7.39-5.18c0.36-0.99,0.51-2.01,0.47-3.02c0.39,0.06,0.78,0.1,1.18,0.1
	c3.29,0,6.26-2.08,7.39-5.18c0.37-1.01,0.52-2.06,0.47-3.09c1.31,0.09,2.63-0.15,3.86-0.72c1.9-0.89,3.35-2.47,4.07-4.44
	C234.27,131.36,234.18,129.23,233.29,127.32z M90.71,142.03c-1.31,0-2.49-0.83-2.94-2.06c0,0,0,0,0,0c-0.4-1.1-0.16-2.3,0.6-3.15
	l22.96-8.36c0.49,0.69,1.04,1.32,1.65,1.9c1.02,0.96,2.2,1.74,3.49,2.32c0,0.02,0.01,0.03,0.01,0.05c0.01,0.04,0.02,0.07,0.02,0.11
	l-1.19,0.43l-19.83,7.21c0,0-0.01,0-0.01,0.01l-3.7,1.35C91.43,141.97,91.07,142.03,90.71,142.03z M100.82,149.94
	c-0.35,0.13-0.71,0.19-1.07,0.19c-1.31,0-2.49-0.83-2.94-2.06c0,0,0,0,0,0c-0.42-1.15-0.13-2.43,0.73-3.28l19.26-7.01l1.02-0.37
	c0.01,0.03,0.03,0.07,0.04,0.1c0.15,0.42,0.3,0.84,0.46,1.26c0.02,0.04,0.03,0.08,0.05,0.12c0.17,0.43,0.34,0.85,0.52,1.27
	c0.01,0.03,0.03,0.07,0.04,0.1c0.18,0.43,0.37,0.85,0.57,1.27c0.01,0.03,0.03,0.05,0.04,0.08c0.2,0.43,0.41,0.85,0.63,1.27
	c0,0.01,0.01,0.01,0.01,0.02l-1.37,0.5l-12.7,4.62c-0.01,0-0.01,0-0.02,0.01L100.82,149.94z M112.06,156.89
	c-0.34,0.12-0.69,0.19-1.06,0.19c-1.31,0-2.5-0.83-2.94-2.06l0,0c-0.34-0.93-0.22-1.96,0.31-2.78l14.26-5.19
	c0.01,0.01,0.02,0.02,0.03,0.04c0.23,0.34,0.47,0.68,0.71,1.02c0.06,0.08,0.11,0.16,0.17,0.24c0.21,0.29,0.43,0.58,0.65,0.87
	c0.09,0.12,0.18,0.23,0.27,0.35c0.2,0.25,0.4,0.5,0.6,0.74c0.12,0.14,0.24,0.29,0.36,0.43c0.19,0.22,0.38,0.44,0.57,0.66
	c0.09,0.11,0.18,0.21,0.28,0.32L112.06,156.89z M143.67,264.41c-0.06,0.03-0.13,0-0.16-0.06c-0.03-0.07,0.01-0.14,0.08-0.18
	c0.15-0.08,2-1.01,4.42-2.23l0.52,0.24C147.02,262.88,145.4,263.62,143.67,264.41z M164.9,264.19c0.05,0.03,0.09,0.1,0.06,0.16
	c-0.03,0.06-0.1,0.09-0.16,0.06l-26.84-12.26c-0.52-0.24-0.77-0.36-0.91-0.42c-2.12-1.11-3.41-3.06-3.54-5.37
	c-0.13-2.3,0.92-4.44,2.83-5.76c0.95-0.48,4.49-2.28,9.56-4.84l2.64,1.21c-5.83,2.67-10.46,4.78-10.6,4.84
	c-0.03,0.02-0.07,0.03-0.1,0.05c-1.62,0.82-2.64,2.35-2.72,4.09c-0.09,1.77,0.81,3.43,2.4,4.45c0.05,0.03,0.1,0.06,0.14,0.09
	c0.13,0.07,3.38,1.71,21.47,10.81C162.39,262.92,164.74,264.11,164.9,264.19z M140,246.35c-0.12-0.09-0.15-0.16-0.15-0.17
	c0.01-0.01,0.04-0.05,0.12-0.09c0.69-0.32,4.74-2.16,9.45-4.32l0.26,9.45C144.9,248.82,140.75,246.73,140,246.35z M154.24,244.82
	l-0.14-5.19c0.05-0.02,0.09-0.04,0.14-0.06l0.14,0.07L154.24,244.82z M154.24,117.87c4.32,0,7.83,3.51,7.83,7.83
	s-3.51,7.83-7.83,7.83s-7.83-3.51-7.83-7.83S149.92,117.87,154.24,117.87z M152.01,162.63c0-0.01,0-0.02,0-0.03l-0.67-24.67
	c0.93,0.22,1.9,0.34,2.9,0.34c1,0,1.97-0.12,2.9-0.34l-1.65,60.84c-0.59-0.3-1.19-0.6-1.78-0.9c-0.25-0.13-0.5-0.25-0.75-0.38
	L152.01,162.63z M153.38,213.23c0.59,0.27,1.15,0.53,1.69,0.77l-0.33,11.98c-0.17,0.09-0.34,0.17-0.51,0.26
	c-0.17-0.09-0.34-0.17-0.51-0.26L153.38,213.23z M167.36,219.62c-1.51,0.76-4.37,2.21-7.81,3.94l0.2-7.42
	C163.84,218.01,166.12,219.05,167.36,219.62z M176.41,219.24c0.04,2.89-1.46,5.43-4.01,6.8l-0.4,0.2l-9.34,4.26
	c-1.04-0.53-2.11-1.06-3.19-1.61c4.7-2.37,8.71-4.4,10.36-5.23l0.78-0.39c1.28-0.63,2.15-1.92,2.27-3.38
	c0.11-1.31-0.39-2.54-1.34-3.38c-0.29-0.33-0.8-0.56-2.79-1.47c-1.67-0.76-4.71-2.15-10.26-4.69c-0.02-0.01-0.04-0.02-0.06-0.03
	c-1.15-0.53-2.4-1.1-3.78-1.73L144.56,204c-0.01,0-0.02-0.01-0.03-0.01c0,0,0,0,0,0c-2.52-1.15-5.29-2.42-8.32-3.8l-8.88-4.06
	c-0.07-0.03-1.09-0.5-1.61-0.74c-0.05-0.02-0.09-0.04-0.13-0.06c-1.93-0.92-6.45-3.76-6.66-10.18c0,0-0.18-8.27-0.22-10.09
	c0-0.01,0-0.03,0-0.04l-0.01-0.12c0-0.03,0-0.05,0-0.08c0-0.01,0-0.02,0-0.03v0c0.06-5.03,5.31-9.12,11.71-9.12
	c6.46,0,11.71,4.12,11.71,9.19c0,5.07-5.25,9.19-11.71,9.19c-0.84,0-1.69-0.07-2.51-0.22c-0.82-0.14-1.65,0.15-2.19,0.78
	c-0.54,0.63-0.72,1.49-0.47,2.28c0.46,1.43,1.42,2.59,2.75,3.33c0.02,0.01,0.11,0.06,0.2,0.11l0.06,0.03
	c0.02,0.01,0.04,0.02,0.06,0.03c0.35,0.18,12.03,6.05,23.26,11.7c10.34,5.21,20.3,10.22,20.66,10.4
	C174.82,213.79,176.38,216.31,176.41,219.24z M200.42,155.01C200.42,155.01,200.42,155.01,200.42,155.01
	c-0.45,1.23-1.63,2.06-2.94,2.06c-0.37,0-0.73-0.06-1.07-0.19l-14.2-5.17c1.32-1.47,2.53-3.03,3.63-4.67l14.26,5.19
	C200.64,153.06,200.76,154.08,200.42,155.01z M211.67,148.07L211.67,148.07c-0.45,1.24-1.63,2.06-2.94,2.06
	c-0.36,0-0.72-0.06-1.07-0.19l-5.27-1.92c-0.01,0-0.01-0.01-0.02-0.01l-13.99-5.09l-0.08-0.03c0.55-1.07,1.05-2.16,1.51-3.27
	c0.03-0.08,0.06-0.15,0.09-0.23c0.12-0.3,0.24-0.6,0.36-0.91c0.05-0.13,0.1-0.26,0.15-0.4c0.08-0.23,0.17-0.46,0.25-0.69l0.79,0.29
	l19.49,7.09C211.79,145.64,212.09,146.92,211.67,148.07z M220.7,139.97C220.7,139.97,220.7,139.97,220.7,139.97
	c-0.45,1.24-1.63,2.07-2.94,2.07c-0.36,0-0.72-0.06-1.07-0.19l-3.7-1.35c0,0-0.01,0-0.01-0.01l-19.91-7.25l-1.11-0.4
	c0.01-0.05,0.02-0.09,0.03-0.14c0-0.01,0-0.01,0-0.02c0.96-0.43,1.85-0.97,2.67-1.62c0.94-0.74,1.78-1.62,2.48-2.6l22.96,8.36
	C220.87,137.67,221.1,138.87,220.7,139.97z"/>
</svg>
